{"title":"Paul Morrissey, Antonrgheriti - Flesh for Frankenstein (1973)","uid":5945205,"size":1402231527,"categoryP":"video","categoryS":"movies","magnet":"?xt=urn:btih:74524716a86b9803da9177c1a2535552b9cec50a&amp;dn=Paul+Morrissey%2C+Antonrgheriti+-+Flesh+for+Frankenstein+%281973%29&amp;tr=udp%3A%2F%2Ftracker.openbittorrent.com%3A80&amp;tr=udp%3A%2F%2Fopen.demonii.com%3A1337&amp;tr=udp%3A%2F%2Ftracker.coppersurfer.tk%3A6969&amp;tr=udp%3A%2F%2Fexodus.desync.com%3A6969","seeders":4,"leechers":2,"uploader":"mfccorrea","files":4,"time":1289337163,"description":"Incest, necrophilia, and Joe Dallesandro? It must be Andy Warhol. Warhol did indeed co-produce this 1973 schlock spectacular -- originally presented in 3D -- that was directed by Factory fave Paul Morrissey. Starring Udo Kier in the role of &quot;Ze Baron,&quot; Flesh for Frankenstein is a horror story for a new 'n' lewd generation. This time around, the mad scientist has created the nymphomaniacally-inclined Adam and Eve, whose mission it is to spawn a new race. Along for the ride --somewhat literally -- is a lusty stable boy (Dallesandro) who main duty it is to entertain the Baron's equally lusty wife/sister. Sex, gore, unconvincing bat attacks, and the highest camp this side of the Appalachian Trail combine for a dizzyingly outrageous midnight movie.\n\n   General\n      Complete name : Flesh for Frankenstein.avi\n      Format : AVI\n      Format/Info : Audio Video Interleave\n      File size : 1.31 GiB\n      Duration : 1h 34mn\n      Overall bit rate : 1 969 Kbps\n      Writing application : VirtualDubMod 1.5.10.2 (build 2540/release)\n      Writing library : VirtualDubMod build 2540/release\n   Video #0\n      ID : 0\n      Format : MPEG-4 Visual\n      Format profile : AdvancedSimple@L5\n      Format settings, BVOP : Yes\n      Format settings, QPel : No\n      Format settings, GMC : No warppoints\n      Format settings, Matrix : Default (MPEG)\n      Muxing mode : Packed bitstream\n      Codec ID : XVID\n      Codec ID/Hint : XviD\n      Duration : 1h 34mn\n      Bit rate : 1 736 Kbps\n      Width : 704 pixels\n      Height : 288 pixels\n      Display aspect ratio : 2.40:1\n      Frame rate : 23.976 fps\n      Resolution : 24 bits\n      Colorimetry : 4:2:0\n      Scan type : Progressive\n      Bits/(Pixel*Frame) : 0.357\n      Stream size : 1.15 GiB (88%)\n      Writing library : XviD 1.2.0.dev47 (UTC 2006-11-01)\n   Audio #1\n      ID : 1\n      Format : AC-3\n      Format/Info : Audio Coding 3\n      Codec ID : 2000\n      Duration : 1h 34mn\n      Bit rate mode : Constant\n      Bit rate : 224 Kbps\n      Channel(s) : 2 channels\n      Channel positions : L R\n      Sampling rate : 48.0 KHz\n      Stream size : 152 MiB (11%)\n      Alignment : Split accross interleaves\n      Interleave, duration : 42 ms (1.00 video frame)\n      Interleave, preload duration : 500 ms\n &lt;a href=&quot;\nhttp://www.imdb.com/title/tt0071508/&quot; rel=&quot;nofollow&quot; target=&quot;_NEW&quot;&gt;\nhttp://www.imdb.com/title/tt0071508/&lt;/a&gt;\n\nEnglish audio; Spanish, French and Portuguese subtitles\n\nMy rip of the Image Entertainment DVD\n\nPaul Morrissey, Antonio Margheriti - Flesh for Frankenstein (1973)","torrent":{"xt":"urn:btih:74524716a86b9803da9177c1a2535552b9cec50a","amp;dn":"Paul+Morrissey%2C+Antonrgheriti+-+Flesh+for+Frankenstein+%281973%29","amp;tr":["udp%3A%2F%2Ftracker.openbittorrent.com%3A80","udp%3A%2F%2Fopen.demonii.com%3A1337","udp%3A%2F%2Ftracker.coppersurfer.tk%3A6969","udp%3A%2F%2Fexodus.desync.com%3A6969"],"infoHash":"74524716a86b9803da9177c1a2535552b9cec50a","infoHashBuffer":{"type":"Buffer","data":[116,82,71,22,168,107,152,3,218,145,119,193,162,83,85,82,185,206,197,10]},"announce":[],"urlList":[]}}